<mxfile host="app.diagrams.net" modified="2021-04-30T08:07:32.282Z" agent="5.0 (Windows NT 10.0; WOW64) AppleWebKit/537.36 (KHTML, like Gecko) Chrome/86.0.4240.198 Safari/537.36" etag="k8IHFMvqeX1DgAsNPGMr" version="14.6.6" type="github">
  <diagram id="ffvdOum06S6htCNZCBgj" name="第 1 页">
    <mxGraphModel dx="1422" dy="727" grid="1" gridSize="10" guides="1" tooltips="1" connect="1" arrows="1" fold="1" page="1" pageScale="1" pageWidth="827" pageHeight="1169" math="0" shadow="0">
      <root>
        <mxCell id="0" />
        <mxCell id="1" parent="0" />
        <mxCell id="AaHlQBLxHPW9s6RVjmMW-3" value="" style="edgeStyle=orthogonalEdgeStyle;rounded=0;orthogonalLoop=1;jettySize=auto;html=1;" edge="1" parent="1" source="AaHlQBLxHPW9s6RVjmMW-1" target="AaHlQBLxHPW9s6RVjmMW-2">
          <mxGeometry relative="1" as="geometry" />
        </mxCell>
        <mxCell id="AaHlQBLxHPW9s6RVjmMW-1" value="NMS" style="rounded=0;whiteSpace=wrap;html=1;" vertex="1" parent="1">
          <mxGeometry x="230" y="130" width="120" height="60" as="geometry" />
        </mxCell>
        <mxCell id="AaHlQBLxHPW9s6RVjmMW-5" value="" style="edgeStyle=orthogonalEdgeStyle;rounded=0;orthogonalLoop=1;jettySize=auto;html=1;" edge="1" parent="1" source="AaHlQBLxHPW9s6RVjmMW-2" target="AaHlQBLxHPW9s6RVjmMW-4">
          <mxGeometry relative="1" as="geometry" />
        </mxCell>
        <mxCell id="AaHlQBLxHPW9s6RVjmMW-2" value="OAM" style="rounded=0;whiteSpace=wrap;html=1;" vertex="1" parent="1">
          <mxGeometry x="230" y="270" width="120" height="60" as="geometry" />
        </mxCell>
        <mxCell id="AaHlQBLxHPW9s6RVjmMW-4" value="docker 镜像仓库" style="whiteSpace=wrap;html=1;rounded=0;" vertex="1" parent="1">
          <mxGeometry x="230" y="410" width="120" height="60" as="geometry" />
        </mxCell>
      </root>
    </mxGraphModel>
  </diagram>
</mxfile>
